<?xml version="1.0" encoding="utf-8"?>
<svg xmlns="http://www.w3.org/2000/svg" fill="none" height="32" viewBox="0 0 173 32" width="173">
<path d="M164.923 8.56128V11.9405H168.341V14.0454H164.923V22.6272C164.923 23.9775 165.289 24.6857 166.362 24.6857C166.843 24.6857 168.115 24.3858 168.367 24.3168L168.412 26.4682C168.001 26.6287 166.362 26.9737 165.471 26.9737C164.443 26.9737 163.575 26.6302 163.049 26.0585C162.455 25.4179 162.181 24.4111 162.181 22.9468V14.0454H160.124V11.9405H162.181V9.22586L164.922 8.56269L164.923 8.56128Z" fill="white"/>
<path d="M153.449 26.9748C151.826 26.9748 150.021 26.5144 148.74 25.7737L150.107 23.4097C150.825 23.8251 152.137 24.2432 153.449 24.2432C154.519 24.2432 155.349 24.0025 155.784 23.566C156.036 23.314 156.157 22.9901 156.154 22.5776C156.151 22.0468 156.148 21.3864 153.966 20.6134C152.938 20.2488 149.81 19.1407 149.826 16.2205C149.841 13.6494 151.931 11.8542 154.909 11.8542C156.995 11.8542 158.56 12.6272 158.99 12.8638L157.672 15.256C157.083 14.9321 156.048 14.5844 154.909 14.5844C153.77 14.5844 152.565 15.018 152.558 16.2345C152.557 16.5021 152.552 17.2131 154.878 18.0368C156.737 18.6943 158.871 19.8038 158.886 22.5621C158.891 23.7068 158.487 24.7192 157.72 25.4907C156.755 26.4594 155.278 26.972 153.449 26.972V26.9748Z" fill="white"/>
<path d="M145.402 14.1364C143.938 12.6678 142.167 11.9329 140.091 11.9329C138.016 11.9329 136.256 12.6678 134.787 14.1364C133.317 15.6063 132.584 17.379 132.584 19.4544C132.584 21.5298 133.317 23.3025 134.787 24.7724C136.256 26.241 138.024 26.9759 140.091 26.9759C142.158 26.9759 143.938 26.241 145.402 24.7724C146.867 23.3025 147.599 21.5298 147.599 19.4544C147.599 17.379 146.867 15.6063 145.402 14.1364ZM143.423 22.7787C142.503 23.6939 141.392 24.1515 140.091 24.1515C138.79 24.1515 137.678 23.6939 136.76 22.7787C135.84 21.8649 135.38 20.7568 135.38 19.4544C135.38 18.152 135.84 17.0524 136.76 16.1287C137.678 15.2051 138.789 14.7432 140.091 14.7432C141.394 14.7432 142.503 15.2051 143.423 16.1287C144.342 17.0524 144.801 18.1619 144.801 19.4544C144.801 20.7469 144.342 21.8649 143.423 22.7787Z" fill="white"/>
<path d="M128.772 5.50537V15.1516H122.253V5.50537H119.521V26.6184H122.253V17.8831H128.772V26.6184H131.503V5.50537H128.772Z" fill="white"/>
<path d="M115.639 5.50537V13.9773C114.319 12.613 112.785 11.9315 111.035 11.9315C108.958 11.9315 107.188 12.6665 105.724 14.135C104.258 15.605 103.526 17.3776 103.526 19.453C103.526 21.5284 104.258 23.3011 105.724 24.7711C107.188 26.2396 108.958 26.9746 111.035 26.9746C112.785 26.9746 114.319 26.2931 115.639 24.9287V26.6184H118.384V5.50537H115.639ZM115.639 20.4682C115.481 21.313 115.054 22.0832 114.359 22.7773C113.444 23.6925 112.336 24.1501 111.035 24.1501C109.734 24.1501 108.621 23.6925 107.702 22.7773C106.782 21.8635 106.323 20.7554 106.323 19.453C106.323 18.1506 106.782 17.051 107.702 16.1273C108.621 15.2037 109.732 14.7419 111.035 14.7419C112.337 14.7419 113.444 15.2037 114.359 16.1273C115.054 16.8229 115.481 17.5973 115.639 18.4505V20.4682Z" fill="white"/>
<path d="M99.6568 13.2109V20.9831C99.6568 22.7839 98.1981 24.2426 96.3973 24.2426C94.5965 24.2426 93.1378 22.7839 93.1378 20.9831V13.2109H90.4062V20.9831C90.4062 24.2919 93.0885 26.9742 96.3973 26.9742C99.7061 26.9742 102.388 24.2919 102.388 20.9831V13.2109H99.6568Z" fill="white"/>
<path d="M87.0689 14.1364C85.6046 12.6678 83.8348 11.9329 81.758 11.9329C79.6811 11.9329 77.9226 12.6678 76.454 14.1364C74.9855 15.6063 74.2505 17.379 74.2505 19.4544C74.2505 21.5298 74.9855 23.3025 76.454 24.7724C77.9226 26.241 79.691 26.9759 81.758 26.9759C83.8249 26.9759 85.6046 26.241 87.0689 24.7724C88.5347 23.3025 89.2668 21.5298 89.2668 19.4544C89.2668 17.379 88.5347 15.6063 87.0689 14.1364ZM85.0907 22.7787C84.1713 23.6939 83.0604 24.1515 81.758 24.1515C80.4556 24.1515 79.346 23.6939 78.4266 22.7787C77.5072 21.8649 77.0482 20.7568 77.0482 19.4544C77.0482 18.152 77.5072 17.0524 78.4266 16.1287C79.346 15.2051 80.457 14.7432 81.758 14.7432C83.0589 14.7432 84.1713 15.2051 85.0907 16.1287C86.0087 17.0524 86.4691 18.1619 86.4691 19.4544C86.4691 20.7469 86.0087 21.8649 85.0907 22.7787Z" fill="white"/>
<path d="M70.374 5.84961V26.9753H73.1182V5.84961H70.374Z" fill="white"/>
<path d="M61.3084 24.2308C59.0993 24.2308 57.2111 23.448 55.6412 21.8823C54.0713 20.3166 53.2856 18.42 53.2856 16.1939C53.2856 13.9679 54.0713 12.0868 55.6412 10.5211C57.2111 8.95541 59.0993 8.17256 61.3084 8.17256C63.3486 8.17256 65.31 9.0075 67.1924 10.6788L69.2383 8.81883C66.7405 6.54068 64.0963 5.40161 61.3084 5.40161C58.3263 5.40161 55.7834 6.4562 53.6813 8.56821C51.5791 10.6788 50.5273 13.2216 50.5273 16.1939C50.5273 19.1662 51.5791 21.7189 53.6813 23.8211C55.7834 25.9232 58.3263 26.975 61.3084 26.975C64.0963 26.975 66.7405 25.8359 69.2383 23.5578L67.1924 21.7232C65.31 23.3945 63.3486 24.2308 61.3084 24.2308Z" fill="white"/>
<path d="M26.247 30.3543C30.3359 30.3543 34.4261 30.4444 38.5107 30.3303C42.8995 30.2078 46.0309 27.5875 47.0221 23.4691C47.9514 19.6098 46.0647 15.4365 42.0814 13.7398C39.8779 12.8021 38.7515 11.4223 37.7082 9.39334C33.3237 0.859444 22.0061 -0.585166 15.7574 6.57452C14.3677 8.16556 12.9471 9.26803 10.9407 10.0312C6.04645 11.8954 3.77675 16.5052 4.66379 21.9851C5.41003 26.5907 9.42565 30.1304 14.3945 30.3078L26.247 30.3543Z" fill="white"/>
<path d="M19.0879 11.2996V24.5883H20.8071V11.2996H19.0879Z" fill="#3093FB"/>
<path d="M30.4627 11.2996V16.6317C29.632 15.7742 28.6661 15.3447 27.565 15.3447C26.257 15.3447 25.1433 15.8066 24.221 16.7316C23.2988 17.6567 22.8384 18.7718 22.8384 20.0784C22.8384 21.3851 23.2988 22.5016 24.221 23.4267C25.1433 24.3503 26.257 24.8136 27.565 24.8136C28.6661 24.8136 29.632 24.3841 30.4627 23.5252V24.5883H32.1903V11.2996H30.4627ZM30.4627 20.7177C30.3627 21.2499 30.0952 21.7343 29.6573 22.1721C29.0815 22.748 28.3831 23.0353 27.565 23.0353C26.747 23.0353 26.0458 22.748 25.4671 22.1721C24.8884 21.5963 24.5998 20.8979 24.5998 20.0784C24.5998 19.259 24.8884 18.5677 25.4671 17.9862C26.0458 17.4047 26.7442 17.1132 27.565 17.1132C28.3859 17.1132 29.0815 17.4047 29.6573 17.9862C30.0952 18.4226 30.3627 18.9112 30.4627 19.4477V20.7177Z" fill="#3093FB"/>
</svg>